<svg width="100" height="100" viewBox="0 0 100 100" fill="none" xmlns="http://www.w3.org/2000/svg">
<path d="M76.8391 44H71.5066C70.7716 44 70.3291 43.4 70.5241 42.665L74.7466 26.6675C75.7216 22.985 79.4866 20 83.1691 20H88.5016C89.2366 20 89.6791 20.6 89.4841 21.335L85.2616 37.3325C84.2866 41.015 80.5216 44 76.8391 44Z" fill="#00569A"/>
<path d="M67.344 80H62.0115C61.2765 80 60.834 79.4 61.029 78.665L65.2515 62.6675C66.2265 58.985 69.9915 56 73.674 56H79.0065C79.7415 56 80.184 56.6 79.989 57.335L75.7665 73.3325C74.7915 77.015 71.0265 80 67.344 80Z" fill="#00569A"/>
<path d="M16.8313 80.0006H11.4988C10.7638 80.0006 10.3213 79.4006 10.5163 78.6656L20.7163 39.9956C21.6913 36.3131 25.4563 33.3281 29.1388 33.3281H34.4713C35.2063 33.3281 35.6488 33.9281 35.4538 34.6631L25.2538 73.3331C24.2788 77.0156 20.5138 80.0006 16.8313 80.0006Z" fill="#00569A"/>
<path d="M33.6687 80.0005H28.3362C27.6012 80.0005 27.1587 79.4005 27.3537 78.6655L39.3162 33.3355C40.2912 29.653 44.0562 26.668 47.7387 26.668H53.0712C53.8062 26.668 54.2487 27.268 54.0537 28.003L42.0912 73.333C41.1162 77.0155 37.3512 80.0005 33.6687 80.0005Z" fill="#00569A"/>
<path d="M50.5066 80H45.1741C44.4391 80 43.9966 79.4 44.1916 78.665L57.9091 26.6675C58.8841 22.985 62.6491 20 66.3316 20H71.6641C72.3991 20 72.8416 20.6 72.6466 21.335L58.9291 73.3325C57.9541 77.015 54.1891 80 50.5066 80Z" fill="#00569A"/>
</svg>
